<svg viewBox="0 0 16 18" fill="none" xmlns="http://www.w3.org/2000/svg">
<g clip-path="url(#clip0)">
<path d="M14.355 3.43092L11.355 0.158191C11.2607 0.0560882 11.1329 -0.000809478 11 8.70338e-06H3C2.17156 8.70338e-06 1.5 0.732622 1.5 1.63637V15.8182C1.5 16.7219 2.17156 17.4546 3 17.4546H13C13.8284 17.4546 14.5 16.7219 14.5 15.8182V3.81819C14.5008 3.6732 14.4486 3.53387 14.355 3.43092ZM13.5 15.8182C13.5 16.1195 13.2762 16.3636 13 16.3636H3C2.72384 16.3636 2.5 16.1195 2.5 15.8182V1.63637C2.5 1.33511 2.72384 1.09092 3 1.09092H10.5V3.27274C10.5 3.87522 10.9477 4.36365 11.5 4.36365H13.5V15.8182Z" fill="white"/>
<rect x="9" y="10.9091" width="6" height="6.54545" fill="#24378F"/>
<path d="M11.012 15.5167V13.1407H8.804V12.0727H11.012V9.6967H12.188V12.0727H14.396V13.1407H12.188V15.5167H11.012Z" fill="white"/>
</g>
<defs>
<clipPath id="clip0">
<rect width="16" height="17.4545" fill="white"/>
</clipPath>
</defs>
</svg>
