<svg height="16" viewBox="0 0 16 16" fill="none" xmlns="http://www.w3.org/2000/svg">
<path d="M9.41141 6.35059H2.81348V7.34028H9.41141V6.35059Z" />
<path d="M11.5558 7.48915V3.58885L7.96697 0H0.669189V14.6804H7.97713C8.75496 15.4931 9.84982 16 11.0609 16C13.4154 16 15.3308 14.0846 15.3308 11.7301C15.3308 9.54313 13.6779 7.73523 11.5558 7.48915ZM8.25682 1.6895L9.86629 3.29897H8.25682V1.6895ZM1.65888 13.6907V0.989691H7.26713V4.28866H10.5661V7.48915C9.61243 7.59974 8.75361 8.02563 8.09695 8.65979H2.81352V9.64948H7.33357C7.10709 10.0536 6.94422 10.4979 6.85911 10.9691H2.81352V11.9588H6.79726C6.83021 12.5804 6.99681 13.167 7.26865 13.6907H1.65888ZM11.0609 15.0103C9.25225 15.0103 7.78078 13.5388 7.78078 11.7301C7.78078 9.92145 9.25225 8.45001 11.0609 8.45001C12.8696 8.45001 14.3411 9.92149 14.3411 11.7301C14.3411 13.5388 12.8696 15.0103 11.0609 15.0103Z" />
<path d="M11.5559 9.69751H10.5662V11.2353H9.02832V12.225H10.5662V13.7629H11.5559V12.225H13.0937V11.2353H11.5559V9.69751Z" />
</svg>
