<svg viewBox="0 0 16 16" fill="none" xmlns="http://www.w3.org/2000/svg">
<path d="M14.8454 8.81333V4.78351V2.47423C14.8454 1.65565 14.1794 0.989691 13.3608 0.989691H7.83241C7.62814 0.413724 7.0781 0 6.43299 0H1.48454C0.665963 0 0 0.665963 0 1.48454V12.225H7.48915C7.73519 14.3471 9.54313 16 11.7301 16C14.0846 16 16 14.0846 16 11.7301C16 10.6033 15.561 9.5772 14.8454 8.81333ZM13.8557 2.47423V3.38408C13.7008 3.32915 13.5343 3.29897 13.3608 3.29897H7.91753V1.97938H13.3608C13.6337 1.97938 13.8557 2.20137 13.8557 2.47423ZM0.989691 1.48454C0.989691 1.21168 1.21168 0.989691 1.48454 0.989691H6.43299C6.70585 0.989691 6.92784 1.21168 6.92784 1.48454V4.28866H13.3608C13.6337 4.28866 13.8557 4.51065 13.8557 4.78351V8.02791C13.2294 7.66697 12.5035 7.46029 11.7301 7.46029C9.54309 7.46029 7.73519 9.11317 7.48915 11.2353H0.989691V1.48454ZM11.7301 15.0103C9.92145 15.0103 8.44998 13.5388 8.44998 11.7301C8.44998 9.92145 9.92145 8.44998 11.7301 8.44998C13.5388 8.44998 15.0103 9.92145 15.0103 11.7301C15.0103 13.5388 13.5388 15.0103 11.7301 15.0103Z" />
<path d="M12.2249 9.69727H11.2352V11.2351H9.69739V12.2248H11.2352V13.7627H12.2249V12.2248H13.7628V11.2351H12.2249V9.69727Z" />
</svg>
