<svg viewBox="0 0 16 18" fill="none" xmlns="http://www.w3.org/2000/svg">
<g clip-path="url(#clip0)">
<path d="M14.0286 4.03155H8.96455C8.75898 4.03155 8.5582 3.93947 8.41955 3.78296L6.83946 1.96714C6.45964 1.55413 5.93999 1.33841 5.41368 1.34171H1.97137C0.884405 1.34168 0 2.30648 0 3.49223V13.9623C0 15.1481 0.884405 16.1129 1.97137 16.1129H14.0358H14.0377C15.124 16.1076 16.0048 15.1382 16 13.9557V6.1821C16 4.99632 15.1156 4.03155 14.0286 4.03155ZM14.7943 13.9584C14.7961 14.4188 14.4543 14.7956 14.0347 14.7976H1.97137C1.54937 14.7976 1.20575 14.4227 1.20575 13.9623V3.49223C1.20575 3.03187 1.54937 2.65701 1.97137 2.65632H5.42936C5.43599 2.65632 5.44261 2.65632 5.44927 2.65632C5.65061 2.65632 5.84596 2.7438 5.97736 2.88586L7.54902 4.69311C7.91795 5.10875 8.43402 5.34684 8.96455 5.34684H14.0286C14.4506 5.34684 14.7942 5.7217 14.7942 6.18207V13.9584H14.7943Z" fill="#24378F"/>
<rect x="10" y="9.81818" width="6" height="6.54545" fill="white"/>
<path d="M12.012 14.4258V12.0498H9.804V10.9818H12.012V8.60582H13.188V10.9818H15.396V12.0498H13.188V14.4258H12.012Z" fill="#24378F"/>
</g>
<defs>
<clipPath id="clip0">
<rect width="16" height="17.4545" fill="white"/>
</clipPath>
</defs>
</svg>
