<svg viewBox="0 0 13 14" fill="none" xmlns="http://www.w3.org/2000/svg">
<g clip-path="url(#clip0)">
<path d="M0.516465 3.55073L6.29478 6.593C6.36182 6.62828 6.43993 6.62828 6.50696 6.593L12.2853 3.55069C12.47 3.45353 12.47 3.16585 12.2853 3.06865L6.50689 0.0264599C6.43989 -0.00881998 6.36178 -0.00881998 6.29475 0.0264599L0.516465 3.06869C0.331751 3.16589 0.331751 3.45353 0.516465 3.55073Z" />
<path d="M0.515493 7.24094L6.29381 10.2832C6.36085 10.3185 6.43896 10.3185 6.50599 10.2832L12.2843 7.24098C12.469 7.14382 12.469 6.85614 12.2843 6.75886L11.0652 6.1171L7.19317 8.15557C6.94721 8.28501 6.67286 8.35341 6.3999 8.35341C6.12695 8.35341 5.85267 8.28501 5.60626 8.15537L1.73466 6.11694L0.515457 6.75882C0.330779 6.85614 0.330779 7.14378 0.515493 7.24094Z" />
<path d="M12.2843 10.4491L11.0653 9.80725L7.19321 11.8458C6.94724 11.9753 6.67289 12.0437 6.39993 12.0437C6.12698 12.0437 5.8527 11.9753 5.6063 11.8456L1.73469 9.80725L0.515489 10.4492C0.330775 10.5464 0.330775 10.834 0.515489 10.9313L6.29381 13.9736C6.36084 14.0088 6.43895 14.0088 6.50599 13.9736L12.2843 10.9313C12.4691 10.834 12.4691 10.5464 12.2843 10.4491Z" />
</g>
<defs>
<clipPath id="clip0">
<rect width="12.7995" height="14" fill="white"/>
</clipPath>
</defs>
</svg>
