<svg viewBox="0 0 16 16" fill="none" xmlns="http://www.w3.org/2000/svg">
<g>
<path d="M14.8622 15.8046C14.9922 15.9346 15.1628 15.9999 15.3335 15.9999C15.5042 15.9999 15.6748 15.9346 15.8048 15.8046C16.0655 15.5439 16.0655 15.1226 15.8048 14.8619L11.1528 10.2099L13.1668 7.33326C13.2742 7.18992 13.3335 7.01259 13.3335 6.83326C13.3335 6.37392 12.9595 5.99992 12.5002 5.99992H8.89617L9.49617 0.931256C9.49817 0.911923 9.4995 0.852589 9.4995 0.833256C9.50017 0.373923 9.12617 -7.74811e-05 8.66683 -7.74811e-05C8.4055 -7.74811e-05 8.15617 0.125256 7.9855 0.353923L5.29283 4.34992L1.13817 0.195256C0.8775 -0.0654108 0.456167 -0.0654108 0.1955 0.195256C-0.0651667 0.455923 -0.0651667 0.877256 0.1955 1.13792L14.8622 15.8046Z" fill="#9E9FB5"/>
<path d="M2.83317 7.99996C2.72584 8.14329 2.6665 8.32062 2.6665 8.49996C2.6665 8.95929 3.0405 9.33329 3.49984 9.33329H6.4445L5.8365 15.0806C5.83384 15.098 5.83317 15.1493 5.83317 15.1666C5.83317 15.626 6.20717 16 6.6665 16C6.92784 16 7.17717 15.8746 7.3425 15.6526L9.79384 12.1506L3.9645 6.32129L2.83317 7.99996Z" fill="#9E9FB5"/>
</g>
</svg>
