<svg viewBox="0 0 16 16" fill="none" xmlns="http://www.w3.org/2000/svg">
  <path d="M8 0C4.62047 0 0 2.55433 0 8C0 13.3071 4.44409 16 8 16C14.1008 16 16 10.6551 16 8C16 4.08189 13.0016 0 8 0ZM6.14488 0.752756C5.31024 1.46457 4.61732 2.64252 4.17008 4.10394C3.59055 3.76063 3.05827 3.33543 2.58583 2.84094C3.5622 1.81732 4.79685 1.09921 6.14488 0.752756ZM2.24252 3.2252C2.77165 3.77638 3.37323 4.24567 4.02835 4.61732C3.78268 5.57165 3.6378 6.62992 3.6189 7.74173H0.522835C0.579528 6.08189 1.18425 4.49764 2.24252 3.2252ZM2.24252 12.7748C1.1811 11.5024 0.579528 9.91811 0.522835 8.25827H3.6189C3.6378 9.37323 3.78268 10.4283 4.02835 11.3827C3.37638 11.7575 2.7748 12.2236 2.24252 12.7748ZM2.58583 13.1622C3.05827 12.6677 3.59055 12.2425 4.17008 11.8992C4.61732 13.3575 5.31024 14.5386 6.14488 15.2504C4.79685 14.9008 3.5622 14.1827 2.58583 13.1622ZM7.74173 15.4646C6.4 15.2945 5.24409 13.7953 4.62047 11.6472C5.58425 11.1591 6.64882 10.885 7.74173 10.8441V15.4646ZM7.74173 10.3307C6.60157 10.3685 5.49291 10.6488 4.48819 11.1402C4.27717 10.2583 4.15118 9.28504 4.13228 8.25827H7.74173V10.3307ZM7.74173 7.74173H4.13228C4.15118 6.71496 4.27717 5.74173 4.48819 4.85984C5.49606 5.35118 6.60472 5.6315 7.74173 5.66929V7.74173ZM7.74173 5.15591C6.64567 5.11811 5.58425 4.84094 4.62047 4.35276C5.24409 2.20157 6.4 0.705512 7.74173 0.535433V5.15591ZM13.7575 3.2252C14.8157 4.49764 15.4205 6.08189 15.4772 7.74173H12.3843C12.3654 6.62677 12.2205 5.57165 11.9748 4.61732C12.6268 4.24252 13.2283 3.77638 13.7575 3.2252ZM13.4142 2.8378C12.9417 3.33228 12.4094 3.75748 11.8299 4.10079C11.3827 2.64252 10.6898 1.46457 9.85512 0.749606C11.2031 1.09921 12.4378 1.81732 13.4142 2.8378ZM8.25827 0.535433C9.6 0.705512 10.7559 2.20472 11.3795 4.35276C10.4157 4.84094 9.35433 5.11496 8.25827 5.15591V0.535433ZM8.25827 5.66929C9.39843 5.6315 10.5071 5.35118 11.5118 4.85984C11.7228 5.74173 11.8488 6.71496 11.8677 7.74173H8.25827V5.66929ZM8.25827 8.25827H11.8677C11.8488 9.28504 11.7228 10.2583 11.5118 11.1402C10.5071 10.6457 9.39843 10.3654 8.25827 10.3307V8.25827ZM8.25827 15.4646V10.8441C9.35433 10.8819 10.4157 11.1591 11.3795 11.6472C10.7559 13.7984 9.6 15.2945 8.25827 15.4646ZM9.85512 15.2472C10.6898 14.5354 11.3827 13.3575 11.8299 11.8961C12.4094 12.2394 12.9417 12.6646 13.4142 13.1591C12.4378 14.1827 11.2031 14.9008 9.85512 15.2472ZM13.7575 12.7748C13.2283 12.2236 12.6268 11.7575 11.9748 11.3827C12.2205 10.4283 12.3654 9.37008 12.3843 8.25827H15.4772C15.4205 9.91811 14.8157 11.5024 13.7575 12.7748Z"/>
</svg>
