<svg viewBox="0 0 16 16" fill="none" xmlns="http://www.w3.org/2000/svg">
<g clip-path="url(#clip0)">
<path d="M15.0257 4.32591C15.0257 4.31283 15.0257 4.30302 15.0225 4.28994C15.0225 4.28667 15.0225 4.28013 15.0225 4.27686C15.0192 4.26051 15.0192 4.24743 15.0159 4.23108C15.0159 4.22454 15.0126 4.22127 15.0126 4.21473C15.0094 4.20165 15.0061 4.19184 15.0028 4.17876C15.0028 4.17549 14.9996 4.17222 14.9996 4.16895C14.993 4.1526 14.9898 4.13952 14.9832 4.12317C14.9832 4.1199 14.9799 4.11663 14.9799 4.11336C14.9669 4.08066 14.9505 4.05123 14.9309 4.02507C14.9276 4.0218 14.9276 4.01853 14.9244 4.01526C14.9145 4.00218 14.9047 3.9891 14.8949 3.97602C14.8917 3.97275 14.8884 3.96948 14.8884 3.96621C14.8818 3.9564 14.872 3.94986 14.8622 3.94005C14.859 3.93678 14.8524 3.93351 14.8491 3.92697C14.8393 3.91716 14.8263 3.90735 14.8164 3.89754C14.8132 3.89427 14.8099 3.891 14.8034 3.88773C14.7936 3.88119 14.787 3.87465 14.7772 3.86811C14.7739 3.86484 14.7674 3.86157 14.7641 3.8583C14.7609 3.8583 14.7609 3.85503 14.7576 3.85503L8.37771 0.0781177C8.2044 -0.0232539 7.99185 -0.0265239 7.81527 0.0715776L1.35364 3.69806C1.35037 3.69806 1.35037 3.70133 1.3471 3.70133C1.34383 3.7046 1.33729 3.70787 1.33402 3.71114C1.32421 3.71768 1.3144 3.72422 1.30459 3.73076C1.30132 3.73403 1.29478 3.7373 1.29151 3.74057C1.27843 3.75038 1.26862 3.7602 1.25881 3.76674C1.25554 3.77001 1.249 3.77328 1.24573 3.77982C1.23592 3.78636 1.22938 3.79617 1.21957 3.80598C1.2163 3.80925 1.21303 3.81252 1.20976 3.81579C1.19995 3.82887 1.19014 3.83868 1.18033 3.85176C1.17706 3.85503 1.17379 3.8583 1.17379 3.86157C1.16398 3.87465 1.15417 3.88773 1.14763 3.90408C1.14763 3.90408 1.14763 3.90735 1.14436 3.90735C1.13782 3.91716 1.13455 3.92697 1.12801 3.93678C1.12474 3.94332 1.12474 3.94659 1.12147 3.95313C1.1182 3.95967 1.11493 3.96621 1.11166 3.96948C1.10839 3.97602 1.10512 3.98256 1.10185 3.9891C1.09858 3.99237 1.09858 3.99891 1.09531 4.00218C1.09204 4.00872 1.08877 4.01853 1.08877 4.02507C1.08877 4.02834 1.0855 4.03161 1.0855 4.03488C1.08223 4.04469 1.08223 4.05123 1.07896 4.06104C1.07896 4.06431 1.07896 4.06758 1.07569 4.07085C1.07242 4.08066 1.07242 4.09047 1.06915 4.10028C1.06915 4.10355 1.06915 4.10682 1.06915 4.10682C1.06915 4.11663 1.06588 4.12644 1.06588 4.13625C1.06588 4.13952 1.06588 4.13952 1.06588 4.14279C1.06588 4.1526 1.06588 4.16241 1.06588 4.17549V4.17876V4.18203V4.1853C1.06588 4.1853 1.06588 4.1853 1.06588 4.18857L0.974318 11.592C0.971048 11.7914 1.07569 11.9778 1.24573 12.0792L7.65503 15.9215C7.74332 15.9738 7.8447 16 7.9428 16C8.03763 16 8.13246 15.9771 8.21748 15.9281L14.6824 12.3016C14.859 12.2035 14.9669 12.0171 14.9701 11.8176L15.0257 4.3488C15.0257 4.34553 15.0257 4.34553 15.0257 4.34226C15.0257 4.33572 15.0257 4.33245 15.0257 4.32591ZM8.08341 1.20629L13.3449 4.32918L8.01147 7.32455L2.74996 4.20165L8.08341 1.20629ZM2.1777 5.16632L7.44248 8.29249V14.486L2.10249 11.2846L2.1777 5.16632ZM8.56084 14.4533V8.3023L13.8976 5.30693L13.8518 11.4841L8.56084 14.4533Z"/>
</g>
<defs>
<clipPath id="clip0">
<rect width="16" height="16" fill="white"/>
</clipPath>
</defs>
</svg>
