<svg viewBox="0 0 16 16" fill="none" xmlns="http://www.w3.org/2000/svg">
<g clip-path="url(#clip0)">
<path d="M8.00283 0.00170907C4.80183 0.0012425 1.90884 1.90928 0.648931 4.8519L0.549218 4.88496L0.587877 5.00093C-1.07098 9.09228 0.900912 13.7537 4.99226 15.4126C5.94783 15.8 6.96931 15.9989 8.00047 15.9984C12.4178 15.999 15.9993 12.4186 16 8.00124C16.0007 3.5839 12.4202 0.00234227 8.00283 0.00170907ZM14.2766 12.0327L13.8659 11.6222V10.6662C13.8664 10.6249 13.8572 10.5841 13.8392 10.547L12.7995 8.47034V7.46682C12.7995 7.37771 12.755 7.29446 12.6808 7.245L11.881 6.71178C11.8183 6.66992 11.7408 6.65655 11.6677 6.67498L10.6882 6.91973L9.04292 6.21375L8.81656 4.62794L9.4439 4.00088H10.7906L11.2438 4.68207C11.2847 4.74332 11.3492 4.78495 11.4219 4.79698L13.0216 5.06359C13.0644 5.07079 13.1083 5.06729 13.1495 5.05346L14.6228 4.56236C15.8585 6.9337 15.7264 9.7858 14.2766 12.0327ZM13.177 2.6289L12.7435 2.9179L11.5349 2.67608L10.7508 2.41507C10.7028 2.39878 10.6512 2.39671 10.6021 2.40921L9.6108 2.65689L9.17622 2.51212L9.49829 1.86799H10.4C10.4413 1.86802 10.4821 1.85846 10.5191 1.83999L11.4416 1.37876C12.0769 1.71035 12.6613 2.13133 13.177 2.6289ZM5.08027 1.13027L5.72014 1.55685C5.7516 1.57778 5.78713 1.59178 5.82439 1.59791L7.11638 1.81333L6.99028 2.19059L6.31708 2.41534C6.2568 2.4354 6.20564 2.47633 6.17285 2.53078L5.40714 3.80678L4.17726 4.54476L2.36431 4.80364C2.2329 4.8222 2.13519 4.93461 2.13502 5.06732V5.86715C2.13502 5.93787 2.16315 6.00566 2.21314 6.05565L2.66824 6.51075V6.96879L1.55914 6.22921L1.15683 5.02226C1.92227 3.27329 3.32521 1.88158 5.08027 1.13027ZM4.32123 9.87165L3.11615 9.63037L2.66824 8.73696V8.11042L3.66164 7.11703L4.02929 7.85261C4.07445 7.94299 4.16686 8.00008 4.26791 8.00004H5.98329L6.70554 9.20379C6.75373 9.28401 6.84044 9.33306 6.93402 9.3331H7.6752L7.48857 10.2681L6.47918 11.2775C6.42909 11.3274 6.4009 11.3952 6.4008 11.466V12.1325L5.441 12.8524C5.37388 12.9027 5.33435 12.9817 5.33435 13.0657V14.0287L5.00269 13.9188L4.53452 12.7479V10.1329C4.53455 10.0062 4.44537 9.89698 4.32123 9.87165ZM3.5198 13.9702C1.00602 12.0843 -0.0570553 8.82574 0.860887 5.82023L1.08244 6.48462C1.1011 6.54085 1.13796 6.58927 1.18722 6.6222L2.51628 7.50814L2.21314 7.81155C2.16315 7.86154 2.13502 7.92932 2.13502 8.00004V8.79988C2.13499 8.84123 2.14455 8.88203 2.16302 8.91905L2.69624 9.9855C2.73316 10.0591 2.80205 10.1116 2.88287 10.1276L4.00263 10.3513V12.799C4.0026 12.8329 4.00903 12.8665 4.02156 12.898L4.55478 14.231C4.58398 14.3038 4.64377 14.3601 4.71822 14.3848L5.51805 14.6515C5.54478 14.6605 5.57277 14.6652 5.60097 14.6653C5.7482 14.6653 5.86758 14.5459 5.86758 14.3987V13.199L6.82738 12.4791C6.8945 12.4288 6.93402 12.3497 6.93402 12.2658V11.5764L7.92235 10.588C7.95951 10.5508 7.98484 10.5034 7.99513 10.4518L8.26175 9.11874C8.29061 8.97434 8.19696 8.8339 8.05256 8.80504C8.03539 8.80161 8.01796 8.79988 8.00047 8.79988H7.08492L6.36267 7.59613C6.31448 7.51591 6.22777 7.46685 6.13419 7.46682H4.43268L3.97464 6.54781C3.93628 6.47109 3.86336 6.41751 3.77868 6.40384C3.69403 6.38921 3.60761 6.41714 3.54753 6.47849L3.20147 6.82322V6.40038C3.20147 6.32966 3.17334 6.26187 3.12335 6.21188L2.66824 5.75678V5.29847L4.30577 5.06465C4.34093 5.05955 4.37476 5.04749 4.40522 5.02919L5.73827 4.22936C5.77566 4.2069 5.80699 4.17557 5.82945 4.13818L6.57863 2.88964L7.28488 2.65396C7.36463 2.6278 7.42722 2.56524 7.45338 2.48546L7.71999 1.68562C7.76618 1.54582 7.6903 1.39502 7.55049 1.34883C7.5376 1.34456 7.52437 1.3413 7.51097 1.33903L5.96782 1.08175L5.69668 0.900988C7.37443 0.354902 9.19158 0.422488 10.8241 1.09162L10.337 1.33476H9.33352C9.23198 1.3342 9.13896 1.39139 9.09357 1.4822L8.56035 2.54864C8.49466 2.68042 8.54822 2.84052 8.67999 2.9062C8.69122 2.9118 8.70282 2.9166 8.71472 2.92057L9.51455 3.18718C9.56254 3.20348 9.6142 3.20554 9.66332 3.19304L10.6546 2.94536L11.3808 3.18718C11.3912 3.19091 11.4019 3.19378 11.4128 3.19571L12.7459 3.46232C12.8152 3.47645 12.8873 3.46225 12.9461 3.42286L13.5529 3.01815C13.8515 3.35078 14.1199 3.70937 14.3549 4.08966L13.0431 4.5269L11.6229 4.29015L11.1537 3.5863C11.1045 3.51254 11.0218 3.46809 10.9332 3.46765H9.33352C9.2628 3.46765 9.19502 3.49578 9.14503 3.54577L8.34519 4.3456C8.28581 4.40496 8.25785 4.48884 8.26974 4.57196L8.53635 6.43823C8.54979 6.53051 8.61044 6.60906 8.69632 6.64539L10.5626 7.44522C10.6161 7.46839 10.6757 7.47315 10.7322 7.45882L11.6842 7.22074L12.2662 7.60946V8.53326C12.2658 8.57452 12.2749 8.61531 12.2929 8.65244L13.3327 10.7291V11.7326C13.3327 11.8033 13.3608 11.8711 13.4108 11.9211L13.9686 12.4791C11.495 15.7762 6.81688 16.4438 3.5198 13.9702Z"/>
</g>
<defs>
<clipPath id="clip0">
<rect width="16" height="16" fill="white"/>
</clipPath>
</defs>
</svg>
