<svg xmlns="http://www.w3.org/2000/svg" viewBox="0 0 197.973 197.973">
  <path d="M119.467 197.973H3.413c-1.886 0-3.413-1.527-3.413-3.413V78.507c0-1.886 1.527-3.413 3.413-3.413h116.053c1.886 0 3.413 1.527 3.413 3.413V194.56c.001 1.886-1.526 3.413-3.412 3.413zm-112.64-6.826h109.227V81.92H6.827v109.227zM194.56 122.88h-6.827c-1.886 0-3.413-1.527-3.413-3.413s1.527-3.413 3.413-3.413h3.413v-3.413c0-1.886 1.527-3.413 3.413-3.413s3.413 1.527 3.413 3.413v6.827c.001 1.885-1.526 3.412-3.412 3.412zM178.423 122.88h-9.31c-1.886 0-3.413-1.527-3.413-3.413s1.527-3.413 3.413-3.413h9.31c1.886 0 3.413 1.527 3.413 3.413.001 1.886-1.527 3.413-3.413 3.413zm-18.616 0h-9.31c-1.886 0-3.413-1.527-3.413-3.413s1.527-3.413 3.413-3.413h9.31c1.886 0 3.413 1.527 3.413 3.413s-1.527 3.413-3.413 3.413z"/>
  <path d="M141.187 122.88h-9.31c-1.886 0-3.413-1.527-3.413-3.413s1.527-3.413 3.413-3.413h9.31c1.886 0 3.413 1.527 3.413 3.413.001 1.886-1.527 3.413-3.413 3.413zm-18.618 0h-9.31c-1.886 0-3.413-1.527-3.413-3.413s1.527-3.413 3.413-3.413h9.31c1.886 0 3.413 1.527 3.413 3.413.001 1.886-1.525 3.413-3.413 3.413zm-18.619 0h-9.31c-1.886 0-3.413-1.527-3.413-3.413s1.527-3.413 3.413-3.413h9.31c1.886 0 3.413 1.527 3.413 3.413s-1.526 3.413-3.413 3.413zM85.333 122.88h-6.827c-1.886 0-3.413-1.527-3.413-3.413v-6.827c0-1.886 1.527-3.413 3.413-3.413s3.413 1.527 3.413 3.413v3.413h3.413c1.886 0 3.413 1.527 3.413 3.413.002 1.887-1.526 3.414-3.412 3.414zM78.507 106.743c-1.886 0-3.413-1.527-3.413-3.413v-9.31c0-1.886 1.527-3.413 3.413-3.413s3.413 1.527 3.413 3.413v9.31c0 1.886-1.527 3.413-3.413 3.413zm0-18.616c-1.886 0-3.413-1.527-3.413-3.413v-9.31c0-1.886 1.527-3.413 3.413-3.413s3.413 1.527 3.413 3.413v9.31c0 1.886-1.527 3.413-3.413 3.413zM78.507 69.507c-1.886 0-3.413-1.527-3.413-3.413v-9.31c0-1.886 1.527-3.413 3.413-3.413s3.413 1.527 3.413 3.413v9.31c0 1.886-1.527 3.413-3.413 3.413zm0-18.618c-1.886 0-3.413-1.527-3.413-3.413v-9.31c0-1.886 1.527-3.413 3.413-3.413s3.413 1.527 3.413 3.413v9.31c0 1.888-1.527 3.413-3.413 3.413zm0-18.619c-1.886 0-3.413-1.527-3.413-3.413v-9.31c0-1.886 1.527-3.413 3.413-3.413s3.413 1.527 3.413 3.413v9.31c0 1.887-1.527 3.413-3.413 3.413zM78.507 13.653c-1.886 0-3.413-1.527-3.413-3.413V3.413C75.093 1.527 76.621 0 78.507 0h6.827c1.886 0 3.413 1.527 3.413 3.413s-1.527 3.413-3.413 3.413H81.92v3.413c0 1.887-1.527 3.414-3.413 3.414zM122.569 6.827h-9.31c-1.886 0-3.413-1.527-3.413-3.413S111.374 0 113.26 0h9.31c1.886 0 3.413 1.527 3.413 3.413s-1.526 3.414-3.414 3.414zm-18.616 0h-9.31c-1.886 0-3.413-1.527-3.413-3.413S92.757 0 94.643 0h9.31c1.886 0 3.413 1.527 3.413 3.413s-1.525 3.414-3.413 3.414zM178.427 6.827h-9.31c-1.886 0-3.413-1.527-3.413-3.413S167.231 0 169.117 0h9.31c1.886 0 3.413 1.527 3.413 3.413s-1.527 3.414-3.413 3.414zm-18.62 0h-9.31c-1.886 0-3.413-1.527-3.413-3.413S148.611 0 150.497 0h9.31c1.886 0 3.413 1.527 3.413 3.413s-1.527 3.414-3.413 3.414zm-18.616 0h-9.31c-1.886 0-3.413-1.527-3.413-3.413S129.995 0 131.881 0h9.31c1.886 0 3.413 1.527 3.413 3.413s-1.527 3.414-3.413 3.414zM194.56 13.653c-1.886 0-3.413-1.527-3.413-3.413V6.827h-3.413c-1.886 0-3.413-1.527-3.413-3.413S185.847 0 187.733 0h6.827c1.886 0 3.413 1.527 3.413 3.413v6.827c0 1.886-1.527 3.413-3.413 3.413zM194.56 50.889c-1.886 0-3.413-1.527-3.413-3.413v-9.31c0-1.886 1.527-3.413 3.413-3.413s3.413 1.527 3.413 3.413v9.31c0 1.888-1.527 3.413-3.413 3.413zm0-18.616c-1.886 0-3.413-1.527-3.413-3.413v-9.31c0-1.886 1.527-3.413 3.413-3.413s3.413 1.527 3.413 3.413v9.31c0 1.887-1.527 3.413-3.413 3.413zM194.56 106.747c-1.886 0-3.413-1.527-3.413-3.413v-9.31c0-1.886 1.527-3.413 3.413-3.413s3.413 1.527 3.413 3.413v9.31c0 1.885-1.527 3.413-3.413 3.413zm0-18.62c-1.886 0-3.413-1.527-3.413-3.413v-9.31c0-1.886 1.527-3.413 3.413-3.413s3.413 1.527 3.413 3.413v9.31c0 1.886-1.527 3.413-3.413 3.413zm0-18.616c-1.886 0-3.413-1.527-3.413-3.413v-9.31c0-1.886 1.527-3.413 3.413-3.413s3.413 1.527 3.413 3.413v9.31c0 1.885-1.527 3.413-3.413 3.413z"/>
</svg>
