<svg viewBox="0 0 16 16" fill="none" xmlns="http://www.w3.org/2000/svg">
<g clip-path="url(#clip0)">
<path d="M6.75223 15.9161L12.9237 5.28975C13.0635 5.04915 12.8653 4.75309 12.5896 4.79059L8.48448 5.34856L9.46533 0.199117C9.49839 0.025523 9.27458 -0.0739459 9.16789 0.066898L3.09995 8.07659C2.9232 8.30987 3.11036 8.64159 3.40142 8.61097L7.92729 8.13456L6.44358 15.8004C6.40779 15.9853 6.65764 16.079 6.75223 15.9161Z" fill="#FFDC64"/>
<path d="M4.99751 7.50898C4.88417 7.51804 4.80889 7.39413 4.86914 7.29773L9.40598 0.0387967C9.33848 -0.0146095 9.23223 -0.0180469 9.16789 0.0668905L3.09995 8.07657C2.9232 8.30988 3.11036 8.64157 3.40142 8.61094L7.92729 8.13454L6.44358 15.8004C6.42358 15.9038 6.49333 15.9766 6.57486 15.994L9.11733 7.94876C9.23651 7.57166 8.93583 7.19388 8.54161 7.22545L4.99751 7.50898Z" fill="#FFC850"/>
</g>
<defs>
<clipPath id="clip0">
<rect width="16" height="16" fill="white"/>
</clipPath>
</defs>
</svg>
