<svg viewBox="0 0 16 16" fill="none" xmlns="http://www.w3.org/2000/svg">
<g clip-path="url(#clip0)">
<path d="M14.355 3.14501L11.355 0.145008C11.2607 0.0514142 11.1329 -0.000742022 11 7.9781e-06H3C2.17156 7.9781e-06 1.5 0.67157 1.5 1.50001V14.5C1.5 15.3284 2.17156 16 3 16H13C13.8284 16 14.5 15.3284 14.5 14.5V3.50001C14.5008 3.3671 14.4486 3.23938 14.355 3.14501ZM13.5 14.5C13.5 14.7762 13.2762 15 13 15H3C2.72384 15 2.5 14.7762 2.5 14.5V1.50001C2.5 1.22385 2.72384 1.00001 3 1.00001H10.5V3.00001C10.5 3.55229 10.9477 4.00001 11.5 4.00001H13.5V14.5Z" />
</g>
<defs>
<clipPath id="clip0">
<rect width="16" height="16" fill="white"/>
</clipPath>
</defs>
</svg>
