<svg viewBox="0 0 14 14" fill="none" xmlns="http://www.w3.org/2000/svg">
<path d="M13.4167 11.0833H11.8632C11.6107 10.2428 10.8383 9.625 9.91667 9.625C8.99503 9.625 8.22325 10.2428 7.9701 11.0833H0.583324C0.261324 11.0833 0 11.3447 0 11.6667C0 11.9887 0.261324 12.25 0.583324 12.25H7.97007C8.22265 13.0906 8.995 13.7083 9.91665 13.7083C10.8383 13.7083 11.6101 13.0906 11.8632 12.25H13.4166C13.7392 12.25 14 11.9887 14 11.6667C14 11.3447 13.7392 11.0833 13.4167 11.0833ZM9.91667 12.5417C9.43425 12.5417 9.04167 12.1491 9.04167 11.6667C9.04167 11.1842 9.43425 10.7917 9.91667 10.7917C10.3991 10.7917 10.7917 11.1842 10.7917 11.6667C10.7917 12.1491 10.3991 12.5417 9.91667 12.5417Z" fill="#24378F"/>
<path d="M13.4167 1.75001H11.8632C11.6101 0.909437 10.8383 0.291687 9.91668 0.291687C8.99503 0.291687 8.22325 0.909437 7.97007 1.75001H0.583324C0.261324 1.75001 0 2.01134 0 2.33334C0 2.65534 0.261324 2.91666 0.583324 2.91666H7.97007C8.22325 3.75726 8.995 4.37501 9.91668 4.37501C10.8384 4.37501 11.6101 3.75726 11.8632 2.91669H13.4167C13.7393 2.91669 14 2.65536 14 2.33336C14 2.01136 13.7393 1.75001 13.4167 1.75001ZM9.91668 3.20834C9.43425 3.20834 9.04168 2.81576 9.04168 2.33334C9.04168 1.85091 9.43425 1.45834 9.91668 1.45834C10.3991 1.45834 10.7917 1.85091 10.7917 2.33334C10.7917 2.81576 10.3991 3.20834 9.91668 3.20834Z" fill="#24378F"/>
<path d="M13.4167 6.41664H6.02993C5.77675 5.57606 5.005 4.95831 4.08335 4.95831C3.1617 4.95831 2.38993 5.57606 2.13678 6.41664H0.583324C0.261324 6.41664 0 6.67796 0 6.99996C0 7.32196 0.261324 7.58329 0.583324 7.58329H2.13675C2.38993 8.42386 3.16168 9.04161 4.08332 9.04161C5.00497 9.04161 5.77675 8.42386 6.0299 7.58329H13.4166C13.7392 7.58329 14 7.32196 14 6.99996C14 6.67796 13.7392 6.41664 13.4167 6.41664ZM4.08332 7.87496C3.6009 7.87496 3.20832 7.48239 3.20832 6.99996C3.20832 6.51754 3.6009 6.12496 4.08332 6.12496C4.56575 6.12496 4.95832 6.51754 4.95832 6.99996C4.95832 7.48239 4.56575 7.87496 4.08332 7.87496Z" fill="#24378F"/>
</svg>
