<svg viewBox="0 0 17 16" fill="none" xmlns="http://www.w3.org/2000/svg">
  <g clip-path="url(#clip0)">
  <path d="M14.6856 3.69558H9.62153C9.41597 3.69558 9.21518 3.61117 9.07653 3.4677L7.49644 1.8032C7.11663 1.42461 6.59697 1.22686 6.07066 1.22989H2.62835C1.54139 1.22986 0.656982 2.11427 0.656982 3.2012V12.7988C0.656982 13.8857 1.54139 14.7701 2.62835 14.7701H14.6928H14.6946C15.781 14.7653 16.6618 13.8767 16.657 12.7927V5.66692C16.657 4.57995 15.7725 3.69558 14.6856 3.69558ZM15.4512 12.7952C15.453 13.2172 15.1112 13.5626 14.6916 13.5644H2.62835C2.20635 13.5644 1.86273 13.2208 1.86273 12.7988V3.2012C1.86273 2.7792 2.20635 2.43558 2.62835 2.43495H6.08635C6.09297 2.43495 6.0996 2.43495 6.10625 2.43495C6.3076 2.43495 6.50294 2.51514 6.63435 2.64536L8.206 4.30201C8.57494 4.68301 9.091 4.90126 9.62153 4.90126H14.6856C15.1076 4.90126 15.4512 5.24488 15.4512 5.66688V12.7952H15.4512Z"/>
  </g>
  <defs>
  <clipPath id="clip0">
  <rect width="16" height="16" transform="translate(0.656982)"/>
  </clipPath>
  </defs>
</svg>
