<svg viewBox="0 0 16 14" fill="none" xmlns="http://www.w3.org/2000/svg">
<path d="M16 6.71605C16 10.4194 12.9877 13.4321 9.28395 13.4321C8.62973 13.4321 8.09877 12.9015 8.09877 12.2469C8.09877 11.5923 8.62973 11.0617 9.28395 11.0617C11.6796 11.0617 13.6296 9.1117 13.6296 6.71605C13.6296 4.32 11.6796 2.37037 9.28395 2.37037C7.00998 2.37037 5.14133 4.12721 4.95684 6.35496L5.68059 5.63121C6.14321 5.1682 6.89383 5.1682 7.35644 5.63121C7.81946 6.09383 7.81946 6.84444 7.35644 7.30706L4.68978 9.97373C4.46736 10.1958 4.16593 10.321 3.85185 10.321C3.53738 10.321 3.23595 10.1961 3.01393 9.97373L0.347259 7.30706C-0.115753 6.84405 -0.115753 6.09383 0.347259 5.63121C0.810272 5.1682 1.56049 5.1682 2.02351 5.63121L2.59398 6.20168C2.85827 2.73857 5.75447 0 9.28395 0C12.9877 0 16 3.01274 16 6.71605Z"/>
</svg>
