<svg viewBox="0 0 14 15" fill="none" xmlns="http://www.w3.org/2000/svg">
<path d="M7 1.38501H13.4324V1.76339H7V1.38501Z"/>
<path d="M7 3.2771H13.4324V3.65548H7V3.2771Z"/>
<path d="M7 5.16895H13.4324V5.54732H7V5.16895Z"/>
<path d="M0.567383 7.06091H13.4322V7.4393H0.567383V7.06091Z"/>
<path d="M0.567383 8.95264H13.4322V9.33102H0.567383V8.95264Z"/>
<path d="M0.567383 10.8446H13.4322V11.223H0.567383V10.8446Z"/>
<path d="M0.567383 12.7365H13.4322V13.1148H0.567383V12.7365Z"/>
<path d="M5.12513 5.43576L3.59497 2.03546L2.06481 5.43576L1.71973 5.28062L3.42243 1.49684C3.43738 1.46359 3.46162 1.43538 3.49223 1.41558C3.52284 1.39579 3.55852 1.38525 3.59497 1.38525C3.63142 1.38525 3.6671 1.39579 3.69771 1.41558C3.72832 1.43538 3.75256 1.46359 3.76751 1.49684L5.47021 5.28062L5.12513 5.43576Z"/>
<path d="M2.64844 3.6554H4.51668V4.03377H2.64844V3.6554Z"/>
</svg>
