<svg viewBox="0 0 16 16" fill="none" xmlns="http://www.w3.org/2000/svg">
<g clip-path="url(#clip0)">
<path d="M14.4961 3.57629L14.1428 2.51733C14.0083 2.11401 13.6322 1.84302 13.2072 1.84302H10.2381V0.876343C10.2381 0.393188 9.84523 0 9.3622 0H6.64321C6.1603 0 5.76735 0.393188 5.76735 0.876343V1.84302H2.79836C2.37319 1.84302 1.99709 2.11401 1.86257 2.51733L1.50929 3.57629C1.42885 3.81738 1.46962 4.08435 1.61818 4.29053C1.76674 4.4967 2.0071 4.61987 2.26125 4.61987H2.63051L3.44325 14.67C3.50368 15.4158 4.13649 16 4.88417 16H11.2861C12.0337 16 12.6666 15.4158 12.7269 14.6699L13.5397 4.61987H13.7442C13.9983 4.61987 14.2387 4.4967 14.3872 4.29065C14.5358 4.08447 14.5766 3.81738 14.4961 3.57629ZM6.70485 0.9375H9.30055V1.84302H6.70485V0.9375ZM11.7925 14.5944C11.7713 14.8569 11.5488 15.0625 11.2861 15.0625H4.88417C4.62148 15.0625 4.39907 14.8569 4.37782 14.5944L3.57106 4.61987H12.5991L11.7925 14.5944ZM2.4623 3.68237L2.75197 2.81396C2.75856 2.79395 2.77724 2.78052 2.79836 2.78052H13.2072C13.2283 2.78052 13.2468 2.79395 13.2536 2.81396L13.5432 3.68237H2.4623Z" />
<path d="M10.2969 14.5611C10.3052 14.5616 10.3134 14.5617 10.3217 14.5617C10.5694 14.5617 10.7764 14.3676 10.7893 14.1174L11.2295 5.66742C11.243 5.40888 11.0442 5.1883 10.7858 5.17487C10.5266 5.16108 10.3068 5.36005 10.2932 5.6186L9.85318 14.0685C9.83975 14.3271 10.0384 14.5477 10.2969 14.5611Z" />
<path d="M5.23605 14.1185C5.24972 14.3684 5.45651 14.5617 5.7037 14.5617C5.71225 14.5617 5.72103 14.5615 5.7297 14.561C5.98812 14.547 6.18624 14.326 6.1722 14.0675L5.71115 5.61754C5.69711 5.35899 5.47616 5.16087 5.21762 5.17503C4.9592 5.18907 4.76108 5.41002 4.77512 5.66856L5.23605 14.1185Z" />
<path d="M8.00781 14.5618C8.26672 14.5618 8.47656 14.3519 8.47656 14.093V5.64307C8.47656 5.38416 8.26672 5.17432 8.00781 5.17432C7.7489 5.17432 7.53906 5.38416 7.53906 5.64307V14.093C7.53906 14.3519 7.7489 14.5618 8.00781 14.5618Z" />
</g>
<defs>
<clipPath id="clip0">
<rect width="16" height="16" fill="white"/>
</clipPath>
</defs>
</svg>
