<svg viewBox="0 0 16 16" fill="none" xmlns="http://www.w3.org/2000/svg">
<path d="M10.9333 1.94362C10.5959 1.79621 10.2029 1.95025 10.0555 2.28766C9.90807 2.62506 10.0621 3.01807 10.3995 3.16547C12.5686 4.11311 14.0004 6.25853 14.0004 8.66661C14.0004 11.9802 11.3138 14.6667 8.00036 14.6667C4.68652 14.6667 2.00032 11.9804 2.00032 8.66661C2.00032 6.25906 3.43158 4.11364 5.60009 3.16538C5.93744 3.01788 6.09135 2.62481 5.94382 2.28747C5.79631 1.95012 5.40325 1.79621 5.0659 1.94375C2.41622 3.10235 0.666992 5.72443 0.666992 8.66658C0.666992 12.7168 3.95017 16 8.00039 16C12.0502 16 15.3338 12.7166 15.3338 8.66658C15.3338 5.72374 13.5838 3.10154 10.9333 1.94362Z" />
<path d="M7.99967 7.3334C8.36786 7.3334 8.66633 7.03493 8.66633 6.66674V0.666693C8.66636 0.298471 8.36786 0 7.99967 0C7.63148 0 7.33301 0.298471 7.33301 0.666661V6.66671C7.33301 7.0349 7.63148 7.3334 7.99967 7.3334Z" />
</svg>
