<svg  class="watch_svg" viewBox="0 0 16 16" fill="none" xmlns="http://www.w3.org/2000/svg">
  <path class="top" d="M10.2855 0H5.71411V1.52382H10.2855V0Z"/>
  <path class="arrow" d="M8.76186 5.33325H7.23804V9.90468H8.76186V5.33325Z"/>
  <path class="body" d="M13.3524 4.86468L14.4381 3.77897C14.1105 3.38657 13.7523 3.0285 13.36 2.70086L12.2742 3.78657C11.1047 2.84947 9.61521 2.28564 7.99614 2.28564C4.20568 2.28564 1.14282 5.35611 1.14282 9.14279C1.14282 12.9295 4.20568 15.9999 7.99614 15.9999C11.7866 15.9999 14.8571 12.9295 14.8571 9.14279C14.8571 7.52375 14.2933 6.03804 13.3524 4.86468ZM7.99996 14.4761C5.05521 14.4761 2.66664 12.0875 2.66664 9.14279C2.66664 6.19804 5.05521 3.80947 7.99996 3.80947C10.9447 3.80947 13.3333 6.19804 13.3333 9.14279C13.3333 12.0875 10.9447 14.4761 7.99996 14.4761Z"/>
</svg>
