<svg viewBox="0 0 378 423" fill="none" xmlns="http://www.w3.org/2000/svg">
<g>
<path d="M211.236 100.521H208.909V36.8505C208.909 27.0772 205.02 17.7041 198.099 10.7933C191.178 3.88248 181.791 1.23321e-05 172.003 1.17353e-10H36.906C32.0595 -1.22122e-05 27.2603 0.953142 22.7827 2.80504C18.3051 4.65694 14.2366 7.37132 10.8096 10.7932C7.38251 14.2151 4.66403 18.2774 2.80933 22.7483C0.954621 27.2192 1.07019e-05 32.0111 0 36.8504V386.149C-4.5865e-06 390.989 0.954581 395.781 2.80927 400.252C4.66397 404.723 7.38245 408.785 10.8095 412.207C14.2365 415.629 18.305 418.343 22.7826 420.195C27.2603 422.047 32.0594 423 36.9059 423H172.002C181.791 423 191.178 419.118 198.099 412.207C205.02 405.296 208.908 395.923 208.909 386.15V145.842H211.236V100.521Z" fill="#9E9FB5"/>
<path d="M173.492 9.58721H155.857C156.668 11.5725 156.978 13.7264 156.759 15.8592C156.54 17.9921 155.798 20.0384 154.601 21.8179C153.403 23.5974 151.785 25.0555 149.89 26.0637C147.995 27.072 145.881 27.5994 143.734 27.5996H66.3387C64.1914 27.5994 62.0771 27.072 60.1821 26.0637C58.2871 25.0555 56.6694 23.5974 55.4717 21.8179C54.274 20.0383 53.533 17.992 53.3139 15.8592C53.0948 13.7263 53.4043 11.5724 54.2153 9.58716H37.7446C30.4349 9.58715 23.4247 12.4865 18.256 17.6474C13.0873 22.8083 10.1836 29.808 10.1836 37.1067V385.893C10.1836 393.192 13.0873 400.192 18.256 405.352C23.4247 410.513 30.4349 413.413 37.7445 413.413H173.492C177.111 413.413 180.695 412.701 184.039 411.318C187.383 409.935 190.421 407.908 192.98 405.353C195.54 402.797 197.57 399.763 198.955 396.425C200.34 393.086 201.053 389.507 201.053 385.893V37.1067C201.053 33.4928 200.34 29.9143 198.955 26.5754C197.57 23.2366 195.54 20.2029 192.98 17.6475C190.421 15.092 187.383 13.065 184.039 11.682C180.695 10.299 177.111 9.5872 173.492 9.58721Z" fill="white"/>
<path d="M189.851 283.531H27.0864C26.2873 283.53 25.5212 283.212 24.9561 282.648C24.3911 282.084 24.0732 281.319 24.0723 280.521V240.207C24.0732 239.409 24.3911 238.644 24.9561 238.08C25.5212 237.516 26.2873 237.198 27.0864 237.197H189.851C190.65 237.198 191.417 237.516 191.982 238.08C192.547 238.644 192.865 239.409 192.865 240.207V280.522C192.864 281.319 192.546 282.084 191.981 282.648C191.416 283.212 190.65 283.53 189.851 283.531ZM27.0864 238.401C26.6068 238.402 26.1471 238.592 25.808 238.931C25.4689 239.269 25.2783 239.728 25.2778 240.207V280.522C25.2783 281 25.4689 281.46 25.808 281.798C26.1471 282.137 26.6068 282.327 27.0864 282.328H189.851C190.331 282.327 190.791 282.137 191.13 281.798C191.469 281.46 191.659 281 191.66 280.522V240.207C191.659 239.728 191.469 239.269 191.13 238.931C190.791 238.592 190.331 238.402 189.851 238.401H27.0864Z" fill="#9E9FB5"/>
<path d="M48.1848 273.004C55.1764 273.004 60.8442 267.345 60.8442 260.364C60.8442 253.383 55.1764 247.723 48.1848 247.723C41.1932 247.723 35.5254 253.383 35.5254 260.364C35.5254 267.345 41.1932 273.004 48.1848 273.004Z" fill="#9E9FB5"/>
<path d="M77.4227 251.937C76.8692 251.946 76.3415 252.172 75.9534 252.566C75.5652 252.961 75.3477 253.491 75.3477 254.044C75.3477 254.597 75.5652 255.127 75.9534 255.521C76.3415 255.915 76.8692 256.141 77.4227 256.15H176.89C177.45 256.161 177.991 255.95 178.394 255.562C178.797 255.175 179.03 254.643 179.04 254.085C179.051 253.526 178.839 252.986 178.451 252.583C178.063 252.181 177.531 251.948 176.971 251.937L176.959 251.937C176.936 251.937 176.913 251.937 176.89 251.937H77.4227Z" fill="#9E9FB5"/>
<path d="M77.4227 264.578C76.8692 264.587 76.3415 264.813 75.9534 265.207C75.5652 265.601 75.3477 266.132 75.3477 266.684C75.3477 267.237 75.5652 267.768 75.9534 268.162C76.3415 268.556 76.8692 268.782 77.4227 268.791H176.89C177.449 268.799 177.988 268.585 178.389 268.196C178.79 267.808 179.02 267.277 179.029 266.719C179.038 266.161 178.826 265.622 178.438 265.221C178.05 264.82 177.518 264.588 176.959 264.578C176.936 264.577 176.913 264.577 176.89 264.578H77.4227Z" fill="#9E9FB5"/>
<path d="M189.851 350.946H27.0864C26.2873 350.946 25.5212 350.628 24.9561 350.064C24.3911 349.5 24.0732 348.735 24.0723 347.937V307.623C24.0732 306.825 24.3911 306.06 24.9561 305.496C25.5212 304.932 26.2873 304.614 27.0864 304.613H189.851C190.65 304.614 191.417 304.932 191.982 305.496C192.547 306.06 192.865 306.825 192.865 307.623V347.937C192.864 348.735 192.546 349.5 191.981 350.064C191.416 350.628 190.65 350.946 189.851 350.946ZM27.0864 305.817C26.6068 305.817 26.1471 306.008 25.808 306.346C25.4689 306.685 25.2783 307.144 25.2778 307.623V347.937C25.2783 348.416 25.4689 348.875 25.808 349.214C26.1471 349.552 26.6068 349.743 27.0864 349.743H189.851C190.331 349.743 190.791 349.552 191.13 349.214C191.469 348.875 191.659 348.416 191.66 347.937V307.623C191.659 307.144 191.469 306.685 191.13 306.346C190.791 306.008 190.331 305.817 189.851 305.817H27.0864Z" fill="#9E9FB5"/>
<path d="M48.1848 340.42C55.1764 340.42 60.8442 334.761 60.8442 327.78C60.8442 320.799 55.1764 315.139 48.1848 315.139C41.1932 315.139 35.5254 320.799 35.5254 327.78C35.5254 334.761 41.1932 340.42 48.1848 340.42Z" fill="#9E9FB5"/>
<path d="M77.4227 319.353C76.8692 319.362 76.3415 319.588 75.9534 319.982C75.5652 320.376 75.3477 320.907 75.3477 321.46C75.3477 322.012 75.5652 322.543 75.9534 322.937C76.3415 323.331 76.8692 323.557 77.4227 323.566H176.89C177.449 323.574 177.988 323.36 178.389 322.972C178.79 322.583 179.02 322.052 179.029 321.494C179.038 320.936 178.826 320.398 178.438 319.996C178.05 319.595 177.518 319.364 176.959 319.353C176.936 319.353 176.913 319.353 176.89 319.353H77.4227Z" fill="#9E9FB5"/>
<path d="M77.4227 331.993C76.8692 332.003 76.3415 332.229 75.9534 332.623C75.5652 333.017 75.3477 333.547 75.3477 334.1C75.3477 334.653 75.5652 335.183 75.9534 335.578C76.3415 335.972 76.8692 336.198 77.4227 336.207H176.89C177.449 336.215 177.988 336.001 178.389 335.612C178.79 335.224 179.02 334.692 179.029 334.135C179.038 333.577 178.826 333.038 178.438 332.637C178.05 332.235 177.518 332.004 176.959 331.993C176.936 331.993 176.913 331.993 176.89 331.993H77.4227Z" fill="#9E9FB5"/>
<path d="M105.044 199.873C89.8615 199.879 75.2985 193.863 64.5585 183.148C53.8185 172.433 47.7812 157.897 47.7749 142.737V142.69C47.7749 142.57 47.7749 142.444 47.7819 142.324C47.9565 111.008 73.6456 85.5063 105.044 85.5063C120.232 85.5045 134.8 91.5275 145.541 102.25C156.282 112.973 162.317 127.517 162.319 142.683C162.321 157.848 156.289 172.394 145.55 183.119C134.811 193.844 120.245 199.87 105.057 199.872H105.044V199.873ZM105.044 86.7088C90.2425 86.7419 76.0522 92.6056 65.556 103.026C55.0599 113.446 49.106 127.582 48.988 142.36C48.9816 142.488 48.9816 142.593 48.9816 142.688C48.9802 153.761 52.2673 164.586 58.4273 173.793C64.5872 183.001 73.3433 190.178 83.5883 194.417C93.8333 198.655 105.107 199.766 115.984 197.607C126.861 195.448 136.852 190.117 144.695 182.288C152.537 174.459 157.879 164.484 160.044 153.624C162.208 142.764 161.099 131.507 156.857 121.276C152.614 111.046 145.429 102.301 136.209 96.148C126.989 89.9951 116.149 86.7102 105.059 86.7088H105.044Z" fill="#9E9FB5"/>
<path d="M183.426 269.013C196.286 269.013 206.71 258.605 206.71 245.765C206.71 232.925 196.286 222.516 183.426 222.516C170.567 222.516 160.143 232.925 160.143 245.765C160.143 258.605 170.567 269.013 183.426 269.013Z" fill="white"/>
<path d="M175.34 256.224C175.3 256.224 175.26 256.224 175.22 256.223H162.705C161.117 256.198 159.603 255.551 158.488 254.421C157.374 253.291 156.749 251.769 156.749 250.183C156.748 248.597 157.372 247.075 158.485 245.944C159.598 244.813 161.112 244.165 162.7 244.138H175.226C175.287 244.137 175.354 244.137 175.42 244.138C177.018 244.16 178.542 244.812 179.66 245.951C180.778 247.091 181.4 248.626 181.389 250.221C181.379 251.816 180.737 253.343 179.604 254.467C178.47 255.592 176.938 256.223 175.34 256.224Z" fill="#B4BFF4"/>
<path d="M378 421.585H189.382V422.888H378V421.585Z" fill="#494A60"/>
<path d="M201.003 311.378C200.854 311.148 200.732 310.903 200.636 310.646L197.63 302.61C197.281 301.671 197.318 300.632 197.734 299.721C198.151 298.81 198.912 298.101 199.851 297.749L266.933 272.738C267.873 272.389 268.914 272.426 269.827 272.842C270.739 273.257 271.449 274.018 271.801 274.955L274.807 282.992C274.98 283.457 275.061 283.952 275.043 284.447C275.026 284.943 274.911 285.431 274.704 285.882C274.498 286.333 274.205 286.74 273.841 287.078C273.478 287.416 273.051 287.679 272.586 287.853L205.504 312.864C204.697 313.165 203.81 313.182 202.992 312.911C202.173 312.641 201.472 312.1 201.003 311.378Z" fill="#B4BFF4"/>
<path d="M266.72 270.661L239.442 281.523C238.582 281.781 237.855 282.36 237.411 283.139C236.968 283.918 236.842 284.838 237.059 285.707L240.225 298.364C240.35 298.864 240.584 299.33 240.911 299.728C241.238 300.127 241.65 300.448 242.116 300.669C242.582 300.89 243.092 301.005 243.608 301.006C244.124 301.007 244.634 300.893 245.101 300.674L272.455 287.818C273.321 287.493 274.024 286.839 274.408 285.998C274.793 285.158 274.828 284.199 274.506 283.333L271.218 272.711C270.893 271.844 270.237 271.141 269.394 270.757C268.551 270.373 267.589 270.339 266.72 270.661Z" fill="#242530"/>
<path d="M316.642 349.511C315.786 349.609 314.922 349.413 314.192 348.954C313.463 348.495 312.912 347.802 312.63 346.988L289.28 279.399C289.118 278.93 289.05 278.433 289.08 277.938C289.11 277.443 289.238 276.958 289.455 276.512C289.673 276.066 289.976 275.668 290.348 275.339C290.72 275.01 291.153 274.757 291.623 274.595L299.745 271.798C300.694 271.472 301.733 271.535 302.635 271.974C303.537 272.412 304.227 273.19 304.555 274.137L327.906 341.727C328.232 342.675 328.168 343.712 327.729 344.613C327.29 345.513 326.511 346.203 325.563 346.531L317.441 349.328C317.182 349.417 316.914 349.479 316.642 349.511Z" fill="#B4BFF4"/>
<path d="M306.296 272.98L315.257 300.905C315.605 301.732 315.62 302.66 315.3 303.498C314.98 304.335 314.35 305.017 313.54 305.403L301.746 311.016C301.28 311.238 300.771 311.353 300.255 311.355C299.739 311.357 299.229 311.244 298.762 311.026C298.294 310.807 297.881 310.488 297.552 310.091C297.223 309.694 296.987 309.229 296.859 308.729L289.391 279.478C289.09 278.603 289.149 277.646 289.554 276.815C289.959 275.984 290.677 275.347 291.551 275.044L301.851 270.819C302.727 270.518 303.688 270.577 304.521 270.982C305.354 271.387 305.992 272.106 306.296 272.98Z" fill="#242530"/>
<path d="M279.161 421.968H270.57C269.567 421.967 268.605 421.569 267.896 420.861C267.186 420.152 266.787 419.192 266.786 418.19V346.692C266.787 345.69 267.186 344.73 267.896 344.022C268.605 343.313 269.567 342.915 270.57 342.914H279.161C280.164 342.915 281.126 343.313 281.835 344.022C282.544 344.73 282.943 345.69 282.945 346.692V418.19C282.943 419.192 282.544 420.152 281.835 420.861C281.126 421.569 280.164 421.967 279.161 421.968Z" fill="#242530"/>
<path d="M296.154 421.968H287.562C286.559 421.967 285.597 421.569 284.888 420.861C284.178 420.152 283.779 419.192 283.778 418.19V346.692C283.779 345.69 284.178 344.73 284.888 344.022C285.597 343.313 286.559 342.915 287.562 342.914H296.154C297.157 342.915 298.118 343.313 298.828 344.022C299.537 344.73 299.936 345.69 299.937 346.692V418.19C299.936 419.192 299.537 420.152 298.828 420.861C298.118 421.569 297.157 421.967 296.154 421.968Z" fill="#242530"/>
<path d="M303.235 355.097H264.198C263.117 355.096 262.082 354.667 261.318 353.904C260.554 353.142 260.124 352.108 260.123 351.029V287.708C260.123 281.46 262.609 275.468 267.033 271.05C271.458 266.632 277.459 264.151 283.716 264.151C289.973 264.151 295.974 266.632 300.399 271.05C304.824 275.468 307.309 281.46 307.309 287.708V351.029C307.308 352.108 306.878 353.142 306.114 353.904C305.351 354.667 304.315 355.096 303.235 355.097Z" fill="#9E9FB5"/>
<path d="M309.111 370.587H289.319V258.902L289.687 259.002C295.261 260.53 300.179 263.841 303.687 268.428C307.196 273.014 309.101 278.623 309.111 284.395V370.587Z" fill="#242530"/>
<path d="M276.504 370.587H256.713V284.395C256.723 278.623 258.628 273.014 262.136 268.428C265.644 263.841 270.563 260.53 276.136 259.002L276.504 258.902V370.587Z" fill="#242530"/>
<path d="M283.421 251.053C300.626 251.053 314.574 237.126 314.574 219.946C314.574 202.766 300.626 188.84 283.421 188.84C266.215 188.84 252.268 202.766 252.268 219.946C252.268 237.126 266.215 251.053 283.421 251.053Z" fill="#B4BFF4"/>
<path d="M318.642 212.784C318.642 212.784 320.388 164.543 297.687 180.236C297.687 180.236 284.589 136.354 252.574 202.032L243.261 211.331C243.261 211.331 285.172 205.519 324.172 223.537L318.642 212.784Z" fill="#242530"/>
<path d="M283.896 235.351C281.971 235.298 279.577 235.231 277.731 233.885C277.182 233.468 276.731 232.936 276.409 232.326C276.087 231.717 275.903 231.044 275.869 230.356C275.835 229.867 275.916 229.376 276.104 228.923C276.291 228.47 276.582 228.067 276.952 227.744C277.915 226.931 279.322 226.74 280.839 227.185L279.268 215.721L280.421 215.563L282.268 229.041L281.305 228.6C280.188 228.088 278.656 227.828 277.703 228.632C277.469 228.842 277.287 229.103 277.171 229.395C277.054 229.687 277.007 230.002 277.032 230.315C277.06 230.827 277.199 231.327 277.438 231.782C277.677 232.236 278.011 232.633 278.418 232.947C279.854 233.994 281.763 234.129 283.928 234.189L283.896 235.351Z" fill="#242530"/>
<path d="M273.564 216.709H267.294V217.872H273.564V216.709Z" fill="#242530"/>
<path d="M293.355 216.709H287.085V217.872H293.355V216.709Z" fill="#242530"/>
<path d="M213.961 314.344C213.121 314.733 212.16 314.773 211.29 314.455C210.421 314.137 209.713 313.487 209.323 312.648L189.234 269.414C188.845 268.575 188.805 267.616 189.123 266.748C189.442 265.879 190.093 265.173 190.933 264.784C191.773 264.394 192.734 264.354 193.603 264.672C194.473 264.99 195.181 265.64 195.571 266.479L215.659 309.712C216.049 310.551 216.089 311.511 215.771 312.379C215.452 313.248 214.801 313.954 213.961 314.344Z" fill="#494A60"/>
<path d="M193.322 267.823C192.705 267.823 192.112 267.579 191.676 267.143C191.239 266.707 190.994 266.115 190.994 265.499V235.884H161.889C161.271 235.884 160.679 235.639 160.243 235.203C159.806 234.767 159.561 234.176 159.561 233.559C159.561 232.942 159.806 232.351 160.243 231.915C160.679 231.479 161.271 231.234 161.889 231.234H193.322C193.94 231.234 194.532 231.479 194.969 231.915C195.405 232.351 195.65 232.942 195.65 233.559V265.499C195.65 266.115 195.405 266.707 194.969 267.143C194.532 267.579 193.94 267.823 193.322 267.823Z" fill="#B4BFF4"/>
<path d="M193.873 271.11C188.86 273.432 183.27 274.218 177.81 273.368C172.349 272.518 167.264 270.071 163.197 266.335C159.13 262.599 156.264 257.743 154.961 252.381C153.658 247.019 153.976 241.391 155.876 236.21C157.776 231.029 161.173 226.526 165.635 223.272C170.098 220.018 175.427 218.158 180.949 217.928C186.47 217.698 191.936 219.108 196.654 221.98C201.373 224.851 205.133 229.056 207.459 234.061C210.569 240.774 210.885 248.445 208.338 255.391C205.791 262.336 200.589 267.989 193.873 271.11ZM173.294 226.822C169.534 228.564 166.376 231.379 164.219 234.913C162.062 238.447 161.003 242.54 161.176 246.675C161.349 250.81 162.746 254.8 165.19 258.142C167.634 261.485 171.016 264.028 174.908 265.451C178.8 266.874 183.027 267.112 187.055 266.136C191.083 265.161 194.73 263.014 197.536 259.968C200.342 256.923 202.18 253.114 202.819 249.025C203.457 244.936 202.867 240.75 201.123 236.996C198.779 231.967 194.532 228.071 189.315 226.163C184.098 224.256 178.336 224.493 173.294 226.822Z" fill="#494A60"/>
</g>
</svg>
